<svg width="103" height="107" viewBox="0 0 103 107" fill="none" xmlns="http://www.w3.org/2000/svg">
<path d="M68.1379 0C66.0558 0.00189535 64.0179 0.601417 62.2665 1.72735C60.515 2.85327 59.1235 4.45829 58.2573 6.35172C57.7636 6.25554 57.2617 6.20704 56.7586 6.20689C54.7009 6.20689 52.7275 7.02432 51.2724 8.47934C49.8174 9.93436 49 11.9078 49 13.9655C49 16.0232 49.8174 17.9967 51.2724 19.4517C52.7275 20.9067 54.7009 21.7241 56.7586 21.7241H68.1379C71.0187 21.7241 73.7815 20.5797 75.8186 18.5427C77.8556 16.5057 79 13.7429 79 10.8621C79 7.98127 77.8556 5.21846 75.8186 3.18142C73.7815 1.14439 71.0187 0 68.1379 0ZM68.1379 20.6896H56.7586C55.8294 20.6888 54.9104 20.4954 54.0596 20.1215C53.2088 19.7477 52.4448 19.2016 51.8157 18.5177C51.1866 17.8337 50.7061 17.0268 50.4045 16.1479C50.1029 15.2689 49.9868 14.337 50.0634 13.4109C50.1401 12.4848 50.4079 11.5846 50.8499 10.7672C51.2919 9.94978 51.8985 9.23285 52.6315 8.66166C53.3645 8.09046 54.2079 7.67739 55.1085 7.44852C56.0092 7.21964 56.9475 7.17993 57.8642 7.33189C57.4735 8.46779 57.2746 9.66084 57.2759 10.8621C57.2759 10.9992 57.3304 11.1308 57.4274 11.2278C57.5244 11.3248 57.6559 11.3793 57.7931 11.3793C57.9303 11.3793 58.0618 11.3248 58.1588 11.2278C58.2558 11.1308 58.3103 10.9992 58.3103 10.8621C58.3103 8.91835 58.8867 7.01829 59.9666 5.40215C61.0465 3.78602 62.5813 2.52639 64.3771 1.78256C66.1728 1.03874 68.1488 0.844117 70.0552 1.22332C71.9616 1.60252 73.7127 2.5385 75.0871 3.91292C76.4615 5.28733 77.3975 7.03843 77.7767 8.9448C78.1559 10.8512 77.9613 12.8272 77.2174 14.6229C76.4736 16.4187 75.214 17.9535 73.5978 19.0334C71.9817 20.1133 70.0816 20.6896 68.1379 20.6896Z" fill="white"/>
<path d="M74.7188 50C69.3095 50.0049 64.0153 51.5624 59.4651 54.4875C54.915 57.4126 51.3 61.5823 49.0498 66.5013C47.767 66.2514 46.4631 66.1254 45.1562 66.125C39.8105 66.125 34.6837 68.2486 30.9036 72.0286C27.1236 75.8087 25 80.9355 25 86.2812C25 91.627 27.1236 96.7538 30.9036 100.534C34.6837 104.314 39.8105 106.438 45.1562 106.438H74.7188C82.2028 106.438 89.3804 103.464 94.6724 98.1724C99.9645 92.8804 102.937 85.7028 102.938 78.2188C102.937 70.7347 99.9645 63.5571 94.6724 58.2651C89.3804 52.973 82.2028 50 74.7188 50ZM74.7188 103.75H45.1562C42.7421 103.748 40.3546 103.245 38.1444 102.274C35.9342 101.303 33.9493 99.8842 32.315 98.1074C30.6806 96.3305 29.4323 94.2343 28.6488 91.9508C27.8653 89.6673 27.5635 87.2462 27.7627 84.8403C27.9618 82.4344 28.6575 80.0959 29.8058 77.9723C30.9541 75.8487 32.53 73.9862 34.4343 72.5023C36.3385 71.0183 38.5297 69.9452 40.8694 69.3506C43.2092 68.756 45.6469 68.6529 48.0285 69.0477C47.0134 71.9986 46.4968 75.0981 46.5 78.2188C46.5 78.5751 46.6416 78.9169 46.8936 79.1689C47.1456 79.4209 47.4874 79.5625 47.8438 79.5625C48.2001 79.5625 48.5419 79.4209 48.7939 79.1689C49.0459 78.9169 49.1875 78.5751 49.1875 78.2188C49.1875 73.1691 50.6849 68.2329 53.4903 64.0343C56.2957 59.8358 60.2831 56.5634 64.9484 54.631C69.6136 52.6986 74.7471 52.1929 79.6996 53.1781C84.6522 54.1632 89.2015 56.5948 92.7721 60.1654C96.3427 63.736 98.7743 68.2853 99.7594 73.2378C100.745 78.1904 100.239 83.3239 98.3065 87.9891C96.3741 92.6544 93.1017 96.6418 88.9032 99.4472C84.7046 102.253 79.7684 103.75 74.7188 103.75Z" fill="white"/>
<path d="M17.7414 24C21.1422 24.0028 24.4707 24.8859 27.3315 26.5444C30.1922 28.2029 32.4649 30.5671 33.8797 33.3562C34.6862 33.2145 35.5059 33.1431 36.3276 33.1429C39.6885 33.1429 42.9118 34.3469 45.2883 36.4902C47.6649 38.6335 49 41.5404 49 44.5714C49 47.6025 47.6649 50.5094 45.2883 52.6527C42.9118 54.7959 39.6885 56 36.3276 56H17.7414C13.0361 56 8.52348 54.3143 5.19633 51.3137C1.86917 48.3131 -2.08616e-06 44.2435 -2.08616e-06 40C-2.08616e-06 35.7565 1.86917 31.6869 5.19633 28.6863C8.52348 25.6857 13.0361 24 17.7414 24ZM17.7414 54.4762H36.3276C37.8454 54.475 39.3464 54.19 40.736 53.6394C42.1256 53.0887 43.3735 52.2843 44.401 51.2768C45.4285 50.2694 46.2134 49.0808 46.706 47.7861C47.1986 46.4913 47.3883 45.1186 47.2631 43.7544C47.1379 42.3903 46.7005 41.0643 45.9786 39.8603C45.2566 38.6562 44.2658 37.6001 43.0686 36.7588C41.8714 35.9174 40.4938 35.3089 39.0227 34.9718C37.5517 34.6347 36.0191 34.5762 34.5218 34.8C35.16 36.4732 35.4848 38.2306 35.4828 40C35.4828 40.2021 35.3938 40.3959 35.2353 40.5387C35.0769 40.6816 34.862 40.7619 34.6379 40.7619C34.4139 40.7619 34.199 40.6816 34.0405 40.5387C33.8821 40.3959 33.7931 40.2021 33.7931 40C33.7931 37.1369 32.8517 34.3381 31.0879 31.9575C29.3241 29.5769 26.8172 27.7214 23.8841 26.6257C20.951 25.5301 17.7236 25.2434 14.6098 25.802C11.4961 26.3605 8.63597 27.7393 6.3911 29.7638C4.14622 31.7883 2.61744 34.3677 1.99808 37.1758C1.37872 39.9839 1.6966 42.8946 2.91152 45.5398C4.12644 48.185 6.18382 50.4458 8.82352 52.0365C11.4632 53.6272 14.5666 54.4762 17.7414 54.4762Z" fill="white"/>
</svg>
