<svg width="135" height="134" viewBox="0 0 135 134" fill="none" xmlns="http://www.w3.org/2000/svg">
<g filter="url(#filter0_d_64_23772)">
<rect x="1" width="127" height="125.451" rx="12" fill="#8034C5"/>
</g>
<path d="M78.1379 12C76.0558 12.0019 74.0179 12.6014 72.2665 13.7273C70.515 14.8533 69.1235 16.4583 68.2573 18.3517C67.7636 18.2555 67.2617 18.207 66.7586 18.2069C64.7009 18.2069 62.7275 19.0243 61.2724 20.4793C59.8174 21.9344 59 23.9078 59 25.9655C59 28.0232 59.8174 29.9967 61.2724 31.4517C62.7275 32.9067 64.7009 33.7241 66.7586 33.7241H78.1379C81.0187 33.7241 83.7815 32.5797 85.8186 30.5427C87.8556 28.5057 89 25.7429 89 22.8621C89 19.9813 87.8556 17.2185 85.8186 15.1814C83.7815 13.1444 81.0187 12 78.1379 12ZM78.1379 32.6896H66.7586C65.8294 32.6888 64.9104 32.4954 64.0596 32.1215C63.2088 31.7477 62.4448 31.2016 61.8157 30.5177C61.1866 29.8337 60.7061 29.0268 60.4045 28.1479C60.1029 27.2689 59.9868 26.337 60.0634 25.4109C60.1401 24.4848 60.4079 23.5846 60.8499 22.7672C61.2919 21.9498 61.8985 21.2329 62.6315 20.6617C63.3645 20.0905 64.2079 19.6774 65.1085 19.4485C66.0092 19.2196 66.9475 19.1799 67.8642 19.3319C67.4735 20.4678 67.2746 21.6608 67.2759 22.8621C67.2759 22.9992 67.3304 23.1308 67.4274 23.2278C67.5244 23.3248 67.6559 23.3793 67.7931 23.3793C67.9303 23.3793 68.0618 23.3248 68.1588 23.2278C68.2558 23.1308 68.3103 22.9992 68.3103 22.8621C68.3103 20.9184 68.8867 19.0183 69.9666 17.4022C71.0465 15.786 72.5813 14.5264 74.3771 13.7826C76.1728 13.0387 78.1488 12.8441 80.0552 13.2233C81.9616 13.6025 83.7127 14.5385 85.0871 15.9129C86.4615 17.2873 87.3975 19.0384 87.7767 20.9448C88.1559 22.8512 87.9613 24.8272 87.2174 26.6229C86.4736 28.4187 85.214 29.9535 83.5978 31.0334C81.9817 32.1133 80.0816 32.6896 78.1379 32.6896Z" fill="white"/>
<path d="M84.7188 62C79.3095 62.0049 74.0153 63.5624 69.4651 66.4875C64.915 69.4126 61.3 73.5823 59.0498 78.5013C57.767 78.2514 56.4631 78.1254 55.1562 78.125C49.8105 78.125 44.6837 80.2486 40.9036 84.0286C37.1236 87.8087 35 92.9355 35 98.2812C35 103.627 37.1236 108.754 40.9036 112.534C44.6837 116.314 49.8105 118.438 55.1562 118.438H84.7188C92.2028 118.438 99.3804 115.464 104.672 110.172C109.964 104.88 112.937 97.7028 112.938 90.2188C112.937 82.7347 109.964 75.5571 104.672 70.2651C99.3804 64.973 92.2028 62 84.7188 62ZM84.7188 115.75H55.1562C52.7421 115.748 50.3546 115.245 48.1444 114.274C45.9342 113.303 43.9493 111.884 42.315 110.107C40.6806 108.331 39.4323 106.234 38.6488 103.951C37.8653 101.667 37.5635 99.2462 37.7627 96.8403C37.9618 94.4344 38.6575 92.0959 39.8058 89.9723C40.9541 87.8487 42.53 85.9862 44.4343 84.5023C46.3385 83.0183 48.5297 81.9452 50.8694 81.3506C53.2092 80.756 55.6469 80.6529 58.0285 81.0477C57.0134 83.9986 56.4968 87.0981 56.5 90.2188C56.5 90.5751 56.6416 90.9169 56.8936 91.1689C57.1456 91.4209 57.4874 91.5625 57.8438 91.5625C58.2001 91.5625 58.5419 91.4209 58.7939 91.1689C59.0459 90.9169 59.1875 90.5751 59.1875 90.2188C59.1875 85.1691 60.6849 80.2329 63.4903 76.0343C66.2957 71.8358 70.2831 68.5634 74.9484 66.631C79.6136 64.6986 84.7471 64.1929 89.6996 65.1781C94.6522 66.1632 99.2015 68.5948 102.772 72.1654C106.343 75.736 108.774 80.2853 109.759 85.2378C110.745 90.1904 110.239 95.3239 108.307 99.9891C106.374 104.654 103.102 108.642 98.9032 111.447C94.7046 114.253 89.7684 115.75 84.7188 115.75Z" fill="white"/>
<path d="M27.7414 36C31.1422 36.0028 34.4707 36.8859 37.3315 38.5444C40.1922 40.2029 42.4649 42.5671 43.8797 45.3562C44.6862 45.2145 45.5059 45.1431 46.3276 45.1429C49.6885 45.1429 52.9118 46.3469 55.2883 48.4902C57.6649 50.6335 59 53.5404 59 56.5714C59 59.6025 57.6649 62.5094 55.2883 64.6527C52.9118 66.7959 49.6885 68 46.3276 68H27.7414C23.0361 68 18.5235 66.3143 15.1963 63.3137C11.8692 60.3131 10 56.2435 10 52C10 47.7565 11.8692 43.6869 15.1963 40.6863C18.5235 37.6857 23.0361 36 27.7414 36ZM27.7414 66.4762H46.3276C47.8454 66.475 49.3464 66.19 50.736 65.6394C52.1256 65.0887 53.3735 64.2843 54.401 63.2768C55.4285 62.2694 56.2134 61.0808 56.706 59.7861C57.1986 58.4913 57.3883 57.1186 57.2631 55.7544C57.1379 54.3903 56.7005 53.0643 55.9786 51.8603C55.2566 50.6562 54.2658 49.6001 53.0686 48.7588C51.8714 47.9174 50.4938 47.3089 49.0227 46.9718C47.5517 46.6347 46.0191 46.5762 44.5218 46.8C45.16 48.4732 45.4848 50.2306 45.4828 52C45.4828 52.2021 45.3938 52.3959 45.2353 52.5387C45.0769 52.6816 44.862 52.7619 44.6379 52.7619C44.4139 52.7619 44.199 52.6816 44.0405 52.5387C43.8821 52.3959 43.7931 52.2021 43.7931 52C43.7931 49.1369 42.8517 46.3381 41.0879 43.9575C39.3241 41.5769 36.8172 39.7214 33.8841 38.6257C30.951 37.5301 27.7236 37.2434 24.6098 37.802C21.4961 38.3605 18.636 39.7393 16.3911 41.7638C14.1462 43.7883 12.6174 46.3677 11.9981 49.1758C11.3787 51.9839 11.6966 54.8946 12.9115 57.5398C14.1264 60.185 16.1838 62.4458 18.8235 64.0365C21.4632 65.6272 24.5666 66.4762 27.7414 66.4762Z" fill="white"/>
<defs>
<filter id="filter0_d_64_23772" x="0" y="0" width="135" height="133.451" filterUnits="userSpaceOnUse" color-interpolation-filters="sRGB">
<feFlood flood-opacity="0" result="BackgroundImageFix"/>
<feColorMatrix in="SourceAlpha" type="matrix" values="0 0 0 0 0 0 0 0 0 0 0 0 0 0 0 0 0 0 127 0" result="hardAlpha"/>
<feOffset dx="3" dy="4"/>
<feGaussianBlur stdDeviation="2"/>
<feComposite in2="hardAlpha" operator="out"/>
<feColorMatrix type="matrix" values="0 0 0 0 1 0 0 0 0 1 0 0 0 0 1 0 0 0 0.44 0"/>
<feBlend mode="normal" in2="BackgroundImageFix" result="effect1_dropShadow_64_23772"/>
<feBlend mode="normal" in="SourceGraphic" in2="effect1_dropShadow_64_23772" result="shape"/>
</filter>
</defs>
</svg>
