<svg id="Layer_1" data-name="Layer 1" xmlns="http://www.w3.org/2000/svg" viewBox="0 0 191.7 39.67"><defs><style>.cls-1{fill:#fff;}</style></defs><circle cx="19.67" cy="19.96" r="15.83"/><rect class="cls-1" x="20.24" y="25.18" width="6.88" height="1.32"/><polygon class="cls-1" points="11.71 24.37 10.87 23.35 16.2 18.91 10.87 14.47 11.71 13.46 18.26 18.91 11.71 24.37"/><path d="M45,21.52v4.87H43.41V13.73h4.46a5,5,0,0,1,3.36.88,3.82,3.82,0,0,1,1,3v0a4.08,4.08,0,0,1-.76,2.66,3.82,3.82,0,0,1-2.38,1.17l3.58,4.94h-1.8l-3.52-4.87Zm0-1.41h2.85A3.26,3.26,0,0,0,50,19.55a2.51,2.51,0,0,0,.62-1.93v0a2.45,2.45,0,0,0-.61-1.9,3.31,3.31,0,0,0-2.16-.54H45Z"/><path d="M77,23h-1l-3.67-6.48h0v9.91H70.82V13.73h1.63L76.56,21l4.11-7.28H82.3V26.39H80.74V16.48h0Z"/><path d="M92.55,26.64a4.78,4.78,0,0,1-4-1.67,7.88,7.88,0,0,1-1.28-4.89v0a7.91,7.91,0,0,1,1.28-4.9,4.8,4.8,0,0,1,4-1.67q5.34,0,5.34,6.57v0Q97.89,26.64,92.55,26.64Zm2.86-10.51a3.88,3.88,0,0,0-5.72,0A7,7,0,0,0,88.81,20v0a6.94,6.94,0,0,0,.88,3.9,3.86,3.86,0,0,0,5.72,0,6.86,6.86,0,0,0,.88-3.9v0A6.92,6.92,0,0,0,95.41,16.13Z"/><path d="M112.12,26.39h-1.54l-6.2-10h0v10h-1.54V13.73h1.54l6.2,10h0v-10h1.54Z"/><path d="M130.72,20.63l-1.3-.21a6,6,0,0,1-2.91-1.05,2.86,2.86,0,0,1-1-2.38v0a3,3,0,0,1,1.18-2.63,5.27,5.27,0,0,1,3.17-.86q4.47,0,4.58,3.73h-1.54a2.21,2.21,0,0,0-.78-1.77,3.53,3.53,0,0,0-2.24-.58c-1.87,0-2.81.7-2.81,2.11v0a1.54,1.54,0,0,0,.63,1.37,4.85,4.85,0,0,0,2,.62l1.3.2a5.43,5.43,0,0,1,2.89,1.16,3.23,3.23,0,0,1,.91,2.45v0a3.42,3.42,0,0,1-1.22,2.88,6.69,6.69,0,0,1-7-.14,4.08,4.08,0,0,1-1.33-3.26h1.54a2.74,2.74,0,0,0,1,2.21,3.79,3.79,0,0,0,2.43.75c2.05,0,3.07-.82,3.07-2.44v0a1.82,1.82,0,0,0-.59-1.47A3.87,3.87,0,0,0,130.72,20.63Z"/><path d="M141.14,21.56v4.83h-1.58V13.73h4.28a5,5,0,0,1,3.35.88,3.81,3.81,0,0,1,1,3v0a3.85,3.85,0,0,1-1,3,5,5,0,0,1-3.37.91Zm0-1.41h2.66a3.22,3.22,0,0,0,2.18-.57,2.53,2.53,0,0,0,.63-1.94v0a2.47,2.47,0,0,0-.62-1.92,3.28,3.28,0,0,0-2.15-.54h-2.7Z"/><path d="M169.91,14.87A3.32,3.32,0,0,0,167,16.14a6.81,6.81,0,0,0-.9,3.9v0A6.67,6.67,0,0,0,167,24a3.46,3.46,0,0,0,3,1.27,3.19,3.19,0,0,0,2.29-.72,3.3,3.3,0,0,0,.88-2.22h1.58a4.6,4.6,0,0,1-1.36,3.22A4.82,4.82,0,0,1,170,26.64,5,5,0,0,1,165.81,25a7.8,7.8,0,0,1-1.31-4.9v0a7.91,7.91,0,0,1,1.29-4.9,4.9,4.9,0,0,1,4.12-1.67,5.15,5.15,0,0,1,3.4,1,3.76,3.76,0,0,1,1.29,2.83H173C172.83,15.68,171.79,14.87,169.91,14.87Z"/><path d="M187.72,13.73v1.39H181.3V19.2h5.89v1.39H181.3V25h6.49v1.4h-8.07V13.73Z"/><polygon points="62.18 13.73 60.49 13.73 56 26.39 57.61 26.39 61.32 15.45 61.35 15.45 65.06 26.39 66.67 26.39 62.18 13.73"/><polygon points="156.98 13.73 155.29 13.73 150.8 26.39 152.41 26.39 156.12 15.45 156.16 15.45 159.86 26.39 161.47 26.39 156.98 13.73"/><circle cx="119.24" cy="24.28" r="1.32"/></svg>